<?xml version="1.0" standalone="no"?>
<!DOCTYPE svg PUBLIC "-//W3C//DTD SVG 20010904//EN"
 "http://www.w3.org/TR/2001/REC-SVG-20010904/DTD/svg10.dtd">
<svg version="1.0" xmlns="http://www.w3.org/2000/svg"
 width="512.000000pt" height="512.000000pt" viewBox="0 0 512.000000 512.000000"
 preserveAspectRatio="xMidYMid meet">
<metadata>
Created by potrace 1.14, written by Peter Selinger 2001-2017
</metadata>
<g transform="translate(0.000000,512.000000) scale(0.100000,-0.100000)"
fill="#000000" stroke="none">
<path d="M1147 4948 c-136 -95 -328 -229 -428 -298 -99 -69 -189 -132 -199
-140 -10 -8 -55 -40 -100 -70 -45 -30 -93 -64 -107 -76 l-26 -20 1 -880 c1
-483 3 -888 5 -899 3 -11 8 -45 12 -75 34 -274 184 -638 389 -945 154 -232
257 -356 486 -585 348 -348 782 -656 1278 -909 l104 -53 121 63 c396 203 692
401 1055 704 117 98 389 380 500 519 333 417 537 854 588 1261 4 33 8 451 8
930 1 761 -1 871 -14 882 -8 7 -59 43 -112 80 -53 38 -295 206 -537 376 l-441
307 -1168 0 -1169 0 -246 -172z"/>
</g>
</svg>
